<?xml version="1.0" encoding="UTF-8"?>
<svg xmlns="http://www.w3.org/2000/svg"
     viewBox="0 0 213 48" width="100%" height="100%">
    <g fill-rule="nonzero" fill="none">
        <path fill="#25AAE1" d="M12 0h6v6h-6zM12 42h6v6h-6zM6 6h6v6H6zM6 36h6v6H6zM0 12h6v24H0z"></path>
        <path fill="#fff" d="M79.417 6A3.433 3.433 0 0 0 76 2.45a3.375 3.375 0 0 0-3.392 3.517 3.433 3.433 0 0 0 3.417 3.55A3.375 3.375 0 0 0 79.408 6M70 6a6 6 0 1 1 12 0 6 6 0 0 1-12 0M91.487 5.565a1.79 1.79 0 0 0 1.371-.406c.377-.319.597-.778.605-1.264 0-1.084-.778-1.63-2.026-1.63h-1.925V5.64l1.975-.074zM87.017 0h4.638C94.359 0 96 1.564 96 3.813c0 2.559-2.043 3.879-4.588 3.879h-1.9V11H87l.017-11zM101 0h7.922v2.16h-5.62v2.224h4.946v2.16h-4.946v2.305H109V11h-8zM114 0h2.284l5.274 6.779V0H124v11h-2.11l-5.448-6.99V11H114zM75.302 20.232H72V18h9v2.232h-3.31V29h-2.388zM86 18h7.93v2.151h-5.633v2.233h4.958v2.151h-4.958v2.314H94V29h-8zM99.002 23.509a5.368 5.368 0 0 1 1.63-3.934 5.563 5.563 0 0 1 4.017-1.568 5.652 5.652 0 0 1 4.271 1.642l-1.52 1.722a4.032 4.032 0 0 0-2.767-1.203 3.225 3.225 0 0 0-2.29 1.001 3.112 3.112 0 0 0-.854 2.316c-.057.86.247 1.704.841 2.337a3.225 3.225 0 0 0 2.303 1.012 3.942 3.942 0 0 0 2.847-1.25l1.52 1.51a5.588 5.588 0 0 1-4.44 1.901 5.521 5.521 0 0 1-3.971-1.587 5.328 5.328 0 0 1-1.587-3.915M114 18h2.34v4.351h4.312V18H123v11h-2.348v-4.416h-4.312V29H114zM130 18h2.276l5.274 6.77V18H140v11h-2.11l-5.448-6.99V29H130zM153.417 24A3.433 3.433 0 0 0 150 20.45a3.375 3.375 0 0 0-3.392 3.517 3.433 3.433 0 0 0 3.417 3.55A3.375 3.375 0 0 0 153.408 24M144 24a6 6 0 1 1 12 0 6 6 0 0 1-12 0M161 18h2.45v8.8H169V29h-8zM181.4 24a3.433 3.433 0 0 0-3.417-3.55 3.375 3.375 0 0 0-3.383 3.517 3.433 3.433 0 0 0 3.417 3.55A3.375 3.375 0 0 0 181.4 24m-9.4 0a6 6 0 1 1 12 0 6 6 0 0 1-12 0M188 23.516c0-1.474.64-2.888 1.776-3.923 1.136-1.035 2.674-1.606 4.269-1.585 1.659-.08 3.285.446 4.53 1.463l-1.584 1.747a4.456 4.456 0 0 0-3.014-1.078c-1.904.077-3.384 1.56-3.312 3.321-.057.885.287 1.752.949 2.394a3.6 3.6 0 0 0 2.542.99 4.298 4.298 0 0 0 2.392-.638v-1.503h-2.554v-2.03H199v4.627c-1.368 1.096-3.12 1.697-4.93 1.692-1.613.076-3.187-.477-4.34-1.524-1.151-1.047-1.776-2.492-1.721-3.984M206.28 24.665L202 18h2.867l2.654 4.416L210.223 18H213l-4.272 6.616V29h-2.448zM72 37h8v2.2h-5.688v2.346h5.013v2.192h-5.013V48H72zM85 43.191V37h2.534v6.127c0 1.758.929 2.676 2.466 2.676 1.537 0 2.466-.879 2.466-2.596V37H95v6.111C95 46.386 93.057 48 89.983 48c-3.074 0-4.95-1.598-4.95-4.793M100 37h2.276l5.274 6.77V37H110v11h-2.11l-5.448-6.998V48H100zM118.23 45.836a3.067 3.067 0 0 0 2.345-.893c.622-.62.958-1.477.925-2.362a3.192 3.192 0 0 0-.909-2.396 3.091 3.091 0 0 0-2.36-.923h-1.843v6.647l1.843-.073zM114 37h4.23c3.414 0 5.77 2.376 5.77 5.484 0 3.1-2.356 5.516-5.77 5.516H114V37z"></path>
        <path fill="#25AAE1" d="M36 0h6v6h-6zM42 36h6v6h-6zM36 42h6v6h-6zM42 6h6v6h-6zM48 12h6v24h-6z"></path>
    </g>
</svg>